<svg xmlns="http://www.w3.org/2000/svg" xmlns:xlink="http://www.w3.org/1999/xlink" width="1080" zoomAndPan="magnify" viewBox="0 0 810 809.999993" height="1080" preserveAspectRatio="xMidYMid meet" version="1.0"><defs><clipPath id="4e2c774a5c"><path d="M 0 97.199219 L 381 97.199219 L 381 712.949219 L 0 712.949219 Z M 0 97.199219 " clip-rule="nonzero"/></clipPath><clipPath id="2bb4f94c33"><path d="M 419 97.199219 L 810 97.199219 L 810 712.949219 L 419 712.949219 Z M 419 97.199219 " clip-rule="nonzero"/></clipPath></defs><rect x="-81" width="972" fill="#ffffff" y="-80.999999" height="971.999992" fill-opacity="1"/><rect x="-81" width="972" fill="#ffffff" y="-80.999999" height="971.999992" fill-opacity="1"/><g clip-path="url(#4e2c774a5c)"><path fill="#f1f1f0" d="M 209.605469 360.675781 C 171.292969 360.675781 136.03125 373.441406 107.535156 394.703125 C 110.339844 305.953125 178.945312 217.167969 314.3125 128.367188 L 294.226562 97.199219 C 98.085938 219.0625 0 352.8125 0 498.414062 C 0 565.28125 18.195312 617.679688 54.613281 655.53125 C 91.003906 693.453125 137.085938 712.367188 192.804688 712.367188 C 248.558594 712.367188 293.480469 697.15625 327.667969 666.683594 C 361.835938 636.253906 378.941406 599.4375 378.941406 556.371094 C 378.941406 555.886719 378.851562 555.527344 378.851562 555.011719 C 379.898438 547.371094 380.636719 539.652344 380.636719 531.675781 C 380.636719 437.261719 304.035156 360.675781 209.605469 360.675781 Z M 209.605469 360.675781 " fill-opacity="1" fill-rule="nonzero"/></g><g clip-path="url(#2bb4f94c33)"><path fill="#f1f1f0" d="M 762.582031 649.746094 C 764.792969 647.1875 767.472656 644.75 769.507812 642.078125 C 794.699219 612.277344 810 573.808594 810 531.683594 C 810 437.269531 733.414062 360.660156 638.984375 360.660156 C 595.730469 360.660156 556.355469 376.84375 526.222656 403.347656 C 526.222656 402.292969 526.054688 401.402344 526.054688 400.316406 C 526.054688 309.6875 595.140625 219.007812 733.363281 128.351562 L 713.292969 97.199219 C 517.128906 219.0625 419.046875 352.8125 419.046875 498.449219 C 419.046875 565.3125 437.238281 617.703125 473.671875 655.554688 C 510.054688 693.480469 556.128906 712.417969 611.847656 712.417969 C 667.570312 712.417969 712.546875 697.179688 746.714844 666.691406 C 751.550781 662.441406 755.300781 657.660156 759.4375 653.101562 C 760.53125 652.015625 761.511719 650.882812 762.582031 649.746094 Z M 762.582031 649.746094 " fill-opacity="1" fill-rule="nonzero"/></g></svg>